<svg width="30" height="30" viewBox="0 0 30 30" fill="none" xmlns="http://www.w3.org/2000/svg">
<g clip-path="url(#clip0)">
<path d="M29.0506 27.153L27.0001 21H24.7501L25.9996 27H4.00055L5.25005 21H3.00005L0.948052 27.153C0.427552 28.719 1.35005 30 3.00005 30H27.0001C28.6501 30 29.5726 28.719 29.0506 27.153ZM22.5001 7.5C22.5001 5.51088 21.7099 3.60322 20.3034 2.1967C18.8968 0.790176 16.9892 0 15.0001 0C13.0109 0 11.1033 0.790176 9.69675 2.1967C8.29023 3.60322 7.50005 5.51088 7.50005 7.5C7.50005 14.6625 15.0001 22.5 15.0001 22.5C15.0001 22.5 22.5001 14.6625 22.5001 7.5ZM10.9501 7.59C10.9501 5.3535 12.7621 3.5415 15.0001 3.5415C16.074 3.5415 17.1039 3.96812 17.8633 4.7275C18.6227 5.48688 19.0493 6.51682 19.0493 7.59075C19.0493 8.66468 18.6227 9.69462 17.8633 10.454C17.1039 11.2134 16.074 11.64 15.0001 11.64C13.9259 11.64 12.8958 11.2133 12.1363 10.4538C11.3767 9.69426 10.9501 8.66413 10.9501 7.59Z" fill="black"/>
</g>
<defs>
<clipPath id="clip0">
<rect width="30" height="30" fill="white"/>
</clipPath>
</defs>
</svg>
